<?xml version="1.0" standalone="no"?>
<!DOCTYPE svg PUBLIC "-//W3C//DTD SVG 20010904//EN"
 "http://www.w3.org/TR/2001/REC-SVG-20010904/DTD/svg10.dtd">
<svg version="1.0" xmlns="http://www.w3.org/2000/svg"
 width="1000.000000pt" height="1000.000000pt" viewBox="0 0 1000.000000 1000.000000"
 preserveAspectRatio="xMidYMid meet">
<metadata>
Created by potrace 1.11, written by Peter Selinger 2001-2013
</metadata>
<g transform="translate(0.000000,1000.000000) scale(0.100000,-0.100000)"
fill="#000000" stroke="none">
<path d="M4954 9703 c-10 -32 -18 -60 -19 -63 -1 -3 -6 -16 -12 -30 -6 -14
-14 -41 -18 -60 -4 -19 -10 -39 -13 -45 -4 -5 -8 -19 -9 -29 -2 -11 -8 -25
-14 -33 -6 -7 -9 -13 -6 -13 3 0 -2 -24 -13 -54 -10 -30 -16 -57 -13 -60 4 -3
1 -6 -5 -6 -7 0 -12 -5 -12 -12 0 -15 -47 -172 -65 -218 -8 -19 -24 -69 -36
-110 -12 -41 -24 -79 -28 -85 -3 -5 -6 -15 -7 -21 -3 -17 -123 -392 -140 -436
-7 -21 -11 -38 -9 -38 3 0 0 -10 -7 -22 -6 -13 -13 -28 -14 -34 -1 -5 -22 -75
-48 -155 -25 -79 -46 -148 -46 -153 0 -4 -6 -22 -14 -39 -7 -18 -30 -86 -51
-152 -41 -130 -63 -201 -71 -225 -3 -8 -4 -15 -3 -15 1 0 -6 -18 -15 -40 -10
-22 -17 -40 -16 -40 2 0 -5 -22 -30 -100 -12 -38 -23 -74 -25 -80 -1 -5 -5
-17 -8 -25 -14 -39 -127 -397 -127 -406 0 -5 -7 -22 -15 -38 -8 -15 -13 -32
-10 -36 3 -5 1 -11 -4 -14 -4 -3 -12 -20 -16 -38 -9 -41 -7 -34 -48 -158 -19
-58 -60 -186 -92 -285 -31 -99 -61 -184 -66 -189 -4 -5 -188 -8 -421 -7 -227
2 -890 4 -1473 6 -583 2 -1242 4 -1465 5 -223 1 -415 1 -427 1 -19 -1 -23 -7
-23 -31 0 -16 3 -30 8 -30 4 0 20 -11 37 -25 17 -13 77 -58 135 -99 58 -41
110 -79 115 -84 6 -4 42 -30 80 -56 39 -27 79 -57 91 -67 11 -11 25 -19 31
-19 6 0 13 -4 15 -8 2 -4 35 -30 73 -57 39 -27 72 -52 75 -55 3 -4 32 -25 65
-48 100 -70 178 -125 226 -162 26 -19 57 -42 69 -50 46 -32 306 -219 317 -229
7 -6 16 -11 22 -11 5 0 11 -4 13 -9 2 -7 151 -117 232 -171 53 -36 131 -95
134 -102 2 -5 9 -8 15 -8 7 0 26 -13 44 -28 17 -15 71 -54 118 -87 48 -33 93
-65 99 -70 12 -11 168 -123 194 -140 9 -5 25 -18 36 -27 11 -10 28 -20 38 -24
10 -3 18 -9 18 -14 0 -4 16 -17 35 -29 20 -11 41 -25 48 -31 6 -6 41 -32 77
-58 36 -26 67 -50 68 -54 2 -5 8 -8 14 -8 6 0 30 -16 54 -35 23 -19 47 -35 53
-35 6 0 11 -4 11 -8 0 -4 15 -16 33 -27 17 -10 36 -24 40 -32 4 -7 12 -13 18
-13 10 0 24 -10 60 -42 10 -10 21 -18 24 -18 7 0 229 -162 236 -173 3 -5 -13
-65 -37 -134 -24 -69 -43 -128 -42 -132 1 -3 -3 -15 -9 -27 -7 -11 -14 -32
-17 -47 -2 -14 -9 -34 -15 -45 -6 -12 -11 -30 -11 -41 0 -12 -4 -21 -8 -21 -5
0 -9 -6 -9 -12 0 -12 -124 -394 -183 -564 -16 -45 -26 -85 -23 -88 4 -3 0 -6
-7 -6 -7 0 -11 -3 -7 -6 3 -4 0 -22 -8 -40 -8 -19 -11 -34 -8 -34 3 0 0 -6 -6
-14 -7 -8 -13 -22 -15 -32 -5 -25 -35 -121 -49 -159 -7 -16 -12 -32 -12 -35 0
-3 -5 -18 -12 -35 -11 -30 -123 -371 -128 -390 -1 -5 -5 -18 -8 -27 -4 -10
-10 -26 -14 -35 -3 -10 -7 -23 -8 -28 -2 -6 -26 -80 -54 -165 -29 -85 -54
-162 -56 -170 -2 -8 -11 -35 -20 -60 -9 -25 -18 -52 -20 -60 -1 -8 -29 -91
-60 -185 -31 -93 -58 -174 -60 -180 -1 -5 -5 -17 -8 -25 -3 -8 -15 -46 -27
-85 -11 -38 -25 -77 -29 -85 -5 -9 -12 -31 -16 -50 -4 -19 -11 -39 -15 -45 -4
-5 -11 -26 -15 -45 -4 -19 -10 -39 -13 -45 -4 -5 -7 -14 -8 -20 -1 -5 -30 -93
-64 -195 -34 -102 -68 -204 -75 -227 l-13 -43 33 0 c19 0 40 6 47 13 7 6 30
23 50 37 21 14 38 28 38 33 0 4 4 7 10 7 5 0 31 16 57 36 27 20 59 44 73 54
50 36 169 124 370 271 113 82 213 156 222 164 9 7 29 22 45 32 29 19 34 22 70
51 11 9 31 24 43 32 20 14 80 58 105 78 6 4 26 19 45 32 19 13 40 28 45 33 6
4 35 25 65 47 30 22 66 48 79 58 13 9 29 22 35 28 6 6 17 13 23 15 7 2 25 14
40 27 23 18 169 127 278 206 11 8 58 43 105 77 210 153 278 204 295 217 6 4
42 30 80 57 39 27 72 52 75 55 15 16 90 70 98 70 5 0 19 11 32 25 13 14 29 25
36 25 7 0 14 4 16 8 2 5 91 72 198 151 107 78 210 154 228 169 19 15 39 29 45
31 7 2 14 7 17 10 3 3 30 25 62 48 l56 42 79 -56 c43 -32 80 -61 81 -65 2 -4
8 -8 13 -8 5 0 30 -16 56 -36 27 -20 61 -45 77 -57 16 -12 35 -28 42 -34 7 -7
17 -13 22 -13 5 0 17 -9 27 -20 10 -11 24 -20 32 -20 7 0 13 -4 13 -9 0 -5 15
-18 33 -29 17 -11 41 -27 52 -36 11 -9 54 -41 95 -71 41 -30 80 -58 85 -62 6
-5 69 -51 140 -103 72 -52 136 -100 143 -107 7 -7 17 -13 21 -13 5 0 20 -10
33 -22 14 -13 49 -39 76 -58 28 -19 51 -39 52 -43 0 -5 4 -6 9 -3 5 3 11 -1
15 -9 3 -8 12 -15 20 -15 8 0 16 -3 18 -8 2 -4 32 -29 68 -55 36 -27 76 -57
90 -68 14 -11 37 -28 53 -37 15 -9 27 -20 27 -24 0 -4 5 -8 10 -8 6 0 40 -23
75 -50 35 -28 69 -50 74 -50 5 0 11 -3 13 -8 5 -11 166 -132 177 -132 5 0 11
-3 13 -7 2 -5 41 -36 88 -70 47 -34 90 -66 95 -70 6 -5 51 -37 100 -73 50 -35
92 -67 95 -70 3 -3 29 -23 59 -44 30 -21 59 -43 65 -48 6 -5 61 -45 121 -89
61 -43 117 -85 125 -92 9 -7 38 -28 65 -47 28 -19 59 -42 69 -52 11 -10 23
-18 26 -18 4 0 16 -8 28 -17 11 -10 65 -49 118 -88 54 -38 105 -77 114 -85 30
-27 59 -40 90 -40 28 0 29 1 19 28 -6 15 -10 27 -9 27 1 0 -7 26 -17 53 -3 9
-7 22 -8 27 -2 6 -26 80 -55 165 -29 85 -53 161 -53 168 0 6 -3 12 -6 12 -4 0
-8 12 -9 26 -1 15 -6 32 -11 38 -5 6 -9 14 -9 19 -1 8 -58 187 -71 222 -13 32
-32 89 -36 105 -5 20 -74 231 -82 250 -3 8 -8 24 -10 35 -1 11 -7 29 -12 40
-15 31 -124 368 -124 383 0 6 -4 12 -9 12 -4 0 -7 3 -6 8 2 8 -51 181 -60 197
-4 6 -7 15 -8 20 -1 6 -14 46 -29 90 -15 44 -28 87 -30 95 -2 8 -4 16 -5 18
-2 1 -3 5 -5 10 -1 4 -4 14 -8 22 -7 20 -57 171 -62 190 -2 8 -4 16 -5 18 -2
1 -3 5 -4 10 -11 38 -40 129 -44 137 -4 6 -7 15 -8 20 -1 6 -37 114 -79 240
-42 127 -78 235 -79 240 -2 6 -5 17 -8 25 -3 8 -18 53 -33 100 -14 47 -29 92
-32 100 -3 8 -7 20 -8 26 -3 12 -42 128 -52 154 -4 8 -7 17 -7 20 -3 13 -29
97 -37 115 -4 11 -19 54 -33 95 -27 80 -28 75 25 110 12 8 30 22 39 30 9 8 45
35 81 59 35 25 66 48 67 53 2 4 10 8 18 8 8 0 14 5 14 10 0 6 6 10 14 10 8 0
16 7 20 15 3 8 12 15 20 15 8 0 16 4 18 8 2 5 25 23 53 42 27 19 56 40 65 47
12 10 346 250 420 303 12 8 124 89 250 180 126 91 239 172 251 180 12 8 31 23
41 33 10 9 18 15 18 12 0 -3 134 92 185 132 6 5 45 33 88 63 43 30 92 67 110
82 18 15 37 28 44 28 6 0 13 3 15 8 2 4 13 14 24 22 119 83 191 135 199 145 6
7 25 19 43 29 17 9 32 21 32 27 0 6 4 8 9 5 5 -4 11 -2 13 2 3 7 338 251 448
326 25 17 49 37 53 44 4 6 12 12 18 12 5 0 15 5 22 11 7 5 46 34 87 64 41 29
83 61 93 69 9 9 20 16 23 16 3 0 20 11 38 25 17 14 36 29 42 34 5 4 20 14 32
20 24 13 32 70 10 72 -7 0 -170 0 -363 -1 -192 -1 -863 -3 -1490 -5 -627 -2
-1303 -4 -1501 -6 -199 -1 -366 1 -372 5 -6 3 -13 2 -17 -3 -5 -10 -36 -8 -54
4 -5 3 -13 20 -17 37 -3 18 -10 39 -14 48 -5 8 -27 76 -50 150 -23 74 -53 169
-67 210 -14 41 -26 82 -28 90 -2 8 -4 16 -5 18 -2 1 -3 5 -4 10 -3 10 -72 225
-114 352 -19 58 -35 110 -36 115 -1 6 -31 97 -65 203 -35 106 -64 198 -65 205
-2 7 -6 21 -10 32 -5 11 -10 27 -13 35 -2 8 -25 78 -50 155 -24 77 -46 147
-48 155 -2 8 -15 49 -30 90 -14 41 -28 86 -31 99 -3 13 -10 34 -16 45 -6 12
-10 21 -9 21 1 0 0 7 -3 15 -2 8 -12 40 -21 70 -9 30 -19 62 -21 70 -3 8 -4
15 -2 16 2 0 -3 8 -11 17 -7 10 -11 17 -7 17 3 0 0 16 -8 35 -9 20 -16 39 -17
43 -4 18 -9 34 -44 147 -21 66 -41 129 -46 140 -4 11 -26 81 -49 155 -23 74
-45 144 -50 155 -10 23 -31 91 -34 108 -1 7 -4 17 -7 22 -4 6 -10 24 -14 40
-12 44 -12 45 -15 50 -1 3 -3 8 -4 13 -3 12 -97 303 -119 370 -19 56 -24 62
-48 62 -25 0 -29 -6 -45 -57z"/>
</g>
</svg>
